<svg id="asml" xmlns="http://www.w3.org/2000/svg" width="349.872" height="181.231" viewBox="0 0 349.872 181.231">
  <g id="Group_184" data-name="Group 184" transform="translate(113.934)">
    <path id="Path_710" data-name="Path 710" d="M57.637,182.852l14.192-22.434-6.611,16.164L82.6,170.413,71.723,192.667l5.2-17.2Z" transform="translate(-8.167 -100.251)" fill="#002581"/>
    <path id="Path_711" data-name="Path 711" d="M56.206,164.465l21.928,40.506,21.986-40.926-21.986,27.09Z" transform="translate(-16.208 -79.865)" fill="#00973d"/>
    <g id="Group_183" data-name="Group 183">
      <path id="Path_712" data-name="Path 712" d="M50.165,235.2l36.918-64.686-6.407-7.953Z" transform="translate(-50.165 -88.197)" fill="#e50019"/>
      <path id="Path_713" data-name="Path 713" d="M100.218,235.2,63.3,170.515l6.414-7.953Z" transform="translate(23.682 -88.197)" fill="#e50019"/>
      <path id="Path_714" data-name="Path 714" d="M82.611,151.33,55.378,216.159l7.238,9,20.136-35.294,19.888,35.508,7.493-9.246Z" transform="translate(-20.863 -151.33)" fill="#e50019"/>
    </g>
  </g>
  <g id="Group_186" data-name="Group 186" transform="translate(0 155.49)">
    <g id="Group_185" data-name="Group 185">
      <path id="Path_715" data-name="Path 715" d="M55.539,197.946a7.341,7.341,0,0,1,.291,1.106.637.637,0,0,1-.159.6,1.2,1.2,0,0,1-.742.245,11.616,11.616,0,0,1-1.483.053c-.662,0-1.159,0-1.523-.033a4.464,4.464,0,0,1-.847-.106.752.752,0,0,1-.391-.245,1.033,1.033,0,0,1-.205-.411l-1.675-4.979H39.478l-1.576,4.86a1.585,1.585,0,0,1-.205.457.847.847,0,0,1-.4.285,4.518,4.518,0,0,1-.794.139c-.331.033-.781.033-1.331.033-.583,0-1.053-.02-1.39-.053a1.043,1.043,0,0,1-.689-.285A.754.754,0,0,1,32.97,199a6.5,6.5,0,0,1,.271-1.079l7.68-22.06a2.13,2.13,0,0,1,.258-.536,1.091,1.091,0,0,1,.5-.3,3.774,3.774,0,0,1,.933-.146c.4-.013.927-.013,1.582-.013.748,0,1.344,0,1.8.013a4.708,4.708,0,0,1,1.053.146.958.958,0,0,1,.53.324,1.676,1.676,0,0,1,.278.556Zm-11.4-18.22h-.033L40.583,190.3h7.051Z" transform="translate(-32.956 -174.529)" fill="#002581"/>
      <path id="Path_716" data-name="Path 716" d="M55.052,199.085a.678.678,0,0,1-.106.371.651.651,0,0,1-.4.265,3.479,3.479,0,0,1-.821.179c-.351.033-.781.053-1.3.053a13.847,13.847,0,0,1-1.807-.086,1.748,1.748,0,0,1-.781-.3,1.341,1.341,0,0,1-.377-.464l-7.514-11.8v11.8a.605.605,0,0,1-.119.371.653.653,0,0,1-.4.245,3.056,3.056,0,0,1-.768.179,12.293,12.293,0,0,1-1.231.053c-.483,0-.9-.02-1.218-.053a3.177,3.177,0,0,1-.781-.179.716.716,0,0,1-.4-.245.543.543,0,0,1-.132-.371V175.7a.56.56,0,0,1,.132-.391.89.89,0,0,1,.4-.232,3.655,3.655,0,0,1,.781-.159,14.2,14.2,0,0,1,2.45,0,3.513,3.513,0,0,1,.768.159.791.791,0,0,1,.4.232.623.623,0,0,1,.119.391v10.58l7.276-10.58a1.445,1.445,0,0,1,.331-.4,1.138,1.138,0,0,1,.5-.252,3,3,0,0,1,.788-.146c.318-.033.735-.033,1.231-.033a11.264,11.264,0,0,1,1.271.053,3.713,3.713,0,0,1,.794.159.8.8,0,0,1,.41.271.473.473,0,0,1,.119.351,1.36,1.36,0,0,1-.179.655,9.082,9.082,0,0,1-.655,1.1L47.022,186.4l7.435,11.235a6.426,6.426,0,0,1,.5,1.046A1.232,1.232,0,0,1,55.052,199.085Z" transform="translate(-10.833 -174.529)" fill="#002581"/>
      <path id="Path_717" data-name="Path 717" d="M45.221,199.158a.611.611,0,0,1-.126.338.793.793,0,0,1-.424.245,4.32,4.32,0,0,1-.755.159c-.324.033-.742.053-1.238.053s-.894-.02-1.218-.053a4.336,4.336,0,0,1-.775-.159.772.772,0,0,1-.417-.245.611.611,0,0,1-.126-.338v-23.5a.6.6,0,0,1,.126-.351.9.9,0,0,1,.424-.232,3.656,3.656,0,0,1,.781-.159,10.307,10.307,0,0,1,1.2-.053,10.78,10.78,0,0,1,1.238.053,3.374,3.374,0,0,1,.755.159.937.937,0,0,1,.424.232.6.6,0,0,1,.126.351Z" transform="translate(7.44 -174.529)" fill="#002581"/>
      <path id="Path_718" data-name="Path 718" d="M51.622,192.921a13.379,13.379,0,0,1-.318,3.052,5.639,5.639,0,0,1-1.079,2.3,4.742,4.742,0,0,1-1.973,1.45,7.939,7.939,0,0,1-3.039.5,7.308,7.308,0,0,1-1.145-.079,9.508,9.508,0,0,1-1.039-.219,7.876,7.876,0,0,1-.808-.285,1.064,1.064,0,0,1-.463-.3.774.774,0,0,1-.192-.252,1.033,1.033,0,0,1-.146-.351,4.152,4.152,0,0,1-.073-.549c-.02-.219-.02-.5-.02-.814,0-.444.013-.814.033-1.1a3.109,3.109,0,0,1,.093-.728.531.531,0,0,1,.205-.357.454.454,0,0,1,.3-.106.8.8,0,0,1,.41.133c.152.066.338.152.523.245s.417.179.662.265a2.926,2.926,0,0,0,.907.119,3.019,3.019,0,0,0,.92-.139,1.451,1.451,0,0,0,.649-.49,2.7,2.7,0,0,0,.384-.96,6.761,6.761,0,0,0,.146-1.549V175.628a.425.425,0,0,1,.126-.331.786.786,0,0,1,.4-.232,3.214,3.214,0,0,1,.775-.166c.331-.033.761-.033,1.218-.033.5,0,.894,0,1.225.033a3.555,3.555,0,0,1,.768.166.751.751,0,0,1,.424.232.425.425,0,0,1,.126.331Z" transform="translate(14.095 -174.529)" fill="#002581"/>
      <path id="Path_719" data-name="Path 719" d="M61.053,192.678a7.547,7.547,0,0,1-.748,3.436,6.77,6.77,0,0,1-1.966,2.456,8.091,8.091,0,0,1-2.92,1.5,12.267,12.267,0,0,1-3.569.49,14.99,14.99,0,0,1-2.4-.192,18.81,18.81,0,0,1-1.953-.51,9.167,9.167,0,0,1-1.4-.642,4.343,4.343,0,0,1-.828-.563,1.5,1.5,0,0,1-.344-.728,6.29,6.29,0,0,1-.106-1.344,8.539,8.539,0,0,1,.046-1.013,2.5,2.5,0,0,1,.113-.642.847.847,0,0,1,.225-.371.78.78,0,0,1,.344-.086,1.52,1.52,0,0,1,.755.3,11.1,11.1,0,0,0,1.258.709,10.426,10.426,0,0,0,1.841.7,8.6,8.6,0,0,0,2.469.338,5.223,5.223,0,0,0,1.649-.232,3.723,3.723,0,0,0,1.245-.622,2.434,2.434,0,0,0,.768-1.013,3,3,0,0,0,.271-1.311,2.357,2.357,0,0,0-.45-1.443,4.913,4.913,0,0,0-1.2-1.086,16.388,16.388,0,0,0-1.682-.887c-.629-.278-1.278-.563-1.94-.867A19.545,19.545,0,0,1,48.58,188a7.969,7.969,0,0,1-1.695-1.417,6.958,6.958,0,0,1-1.2-1.913,7.261,7.261,0,0,1-.47-2.675,7.127,7.127,0,0,1,.682-3.151,6.293,6.293,0,0,1,1.788-2.251,7.811,7.811,0,0,1,2.642-1.331,11.632,11.632,0,0,1,5.018-.3,10.7,10.7,0,0,1,1.649.371,6.8,6.8,0,0,1,1.364.516,3.61,3.61,0,0,1,.781.457,3.344,3.344,0,0,1,.271.338,2.709,2.709,0,0,1,.106.358,3.362,3.362,0,0,1,.073.556c.007.218.007.5.007.834,0,.377,0,.7-.026.94a3.143,3.143,0,0,1-.086.642,1.025,1.025,0,0,1-.2.371.474.474,0,0,1-.331.106,1.707,1.707,0,0,1-.682-.265,12.7,12.7,0,0,0-1.126-.6,16.252,16.252,0,0,0-1.556-.569,6.951,6.951,0,0,0-1.94-.245,5.231,5.231,0,0,0-1.45.192,3.44,3.44,0,0,0-1.026.549,2.5,2.5,0,0,0-.616.867,2.811,2.811,0,0,0-.205,1.053,2.247,2.247,0,0,0,.463,1.43,4.083,4.083,0,0,0,1.2,1.079,10.984,10.984,0,0,0,1.721.867c.636.285,1.3.589,1.966.887a19.854,19.854,0,0,1,1.953,1.046,7.294,7.294,0,0,1,1.7,1.4,6.5,6.5,0,0,1,1.225,1.933A6.73,6.73,0,0,1,61.053,192.678Z" transform="translate(33.688 -174.816)" fill="#002581"/>
      <path id="Path_720" data-name="Path 720" d="M66.448,176.955c0,.371-.02.7-.046.96a2.687,2.687,0,0,1-.146.629.983.983,0,0,1-.238.358.547.547,0,0,1-.318.112H59.47v20.054a.535.535,0,0,1-.132.338.729.729,0,0,1-.4.245,4.564,4.564,0,0,1-.781.159,12.091,12.091,0,0,1-1.218.053,11.852,11.852,0,0,1-1.212-.053,4.66,4.66,0,0,1-.788-.159.755.755,0,0,1-.4-.245.535.535,0,0,1-.132-.338V179.014H48.175a.541.541,0,0,1-.331-.112.775.775,0,0,1-.225-.358,2.685,2.685,0,0,1-.146-.629,6.634,6.634,0,0,1-.06-.96,6.832,6.832,0,0,1,.06-.973,3.357,3.357,0,0,1,.146-.655.862.862,0,0,1,.225-.338.58.58,0,0,1,.331-.106H65.7a.588.588,0,0,1,.318.106,1.161,1.161,0,0,1,.238.338,3.359,3.359,0,0,1,.146.655C66.428,176.247,66.448,176.585,66.448,176.955Z" transform="translate(48.307 -174.439)" fill="#002581"/>
      <path id="Path_721" data-name="Path 721" d="M65.465,197.777a7.167,7.167,0,0,1-.04.914,2.989,2.989,0,0,1-.146.622.746.746,0,0,1-.245.318.536.536,0,0,1-.324.113H52.23a1.406,1.406,0,0,1-1.5-1.6V176.479a1.5,1.5,0,0,1,.43-1.218,1.524,1.524,0,0,1,1.066-.377H64.644a.468.468,0,0,1,.3.106.671.671,0,0,1,.245.318,2.9,2.9,0,0,1,.139.622,9.3,9.3,0,0,1,.04.953c0,.358-.013.655-.04.92a2.677,2.677,0,0,1-.139.609,1.474,1.474,0,0,1-.245.338.427.427,0,0,1-.3.1H55.759v6.058H63.28a.547.547,0,0,1,.318.113.982.982,0,0,1,.238.338,2.351,2.351,0,0,1,.139.583,8.767,8.767,0,0,1,.053.92,8.546,8.546,0,0,1-.053.92,2.414,2.414,0,0,1-.139.589.952.952,0,0,1-.238.318.694.694,0,0,1-.318.086H55.759v7.018H64.71a.529.529,0,0,1,.324.106.957.957,0,0,1,.245.331,3.3,3.3,0,0,1,.146.609A7.555,7.555,0,0,1,65.465,197.777Z" transform="translate(66.967 -174.439)" fill="#002581"/>
      <path id="Path_722" data-name="Path 722" d="M68.376,197.777a6.72,6.72,0,0,1-.06.914,2.357,2.357,0,0,1-.139.622.613.613,0,0,1-.238.318.532.532,0,0,1-.318.113H55.141a1.554,1.554,0,0,1-1.086-.377,1.583,1.583,0,0,1-.424-1.218V176.479a1.4,1.4,0,0,1,1.509-1.6H67.549a.52.52,0,0,1,.311.106.756.756,0,0,1,.232.318,4,4,0,0,1,.139.622,9.49,9.49,0,0,1,0,1.874,3.644,3.644,0,0,1-.139.609,2,2,0,0,1-.232.338.473.473,0,0,1-.311.1H58.677v6.058h7.5a.555.555,0,0,1,.331.113.808.808,0,0,1,.218.338,1.826,1.826,0,0,1,.159.583,7.393,7.393,0,0,1,.046.92,7.251,7.251,0,0,1-.046.92,1.872,1.872,0,0,1-.159.589.775.775,0,0,1-.218.318.7.7,0,0,1-.331.086h-7.5v7.018h8.944a.524.524,0,0,1,.318.106.752.752,0,0,1,.238.331,2.514,2.514,0,0,1,.139.609A7.073,7.073,0,0,1,68.376,197.777Z" transform="translate(83.256 -174.439)" fill="#002581"/>
      <path id="Path_723" data-name="Path 723" d="M70.19,197.721a6.05,6.05,0,0,1-.053.98,2.049,2.049,0,0,1-.146.636.761.761,0,0,1-.225.384.579.579,0,0,1-.344.113H58.028a1.532,1.532,0,0,1-1.073-.377,1.583,1.583,0,0,1-.424-1.218V175.661a.522.522,0,0,1,.126-.351.881.881,0,0,1,.41-.232,3.5,3.5,0,0,1,.775-.159,10.752,10.752,0,0,1,1.225-.053,10.582,10.582,0,0,1,1.231.053,3.6,3.6,0,0,1,.768.159.908.908,0,0,1,.417.232.582.582,0,0,1,.113.351v20.007h7.826a.616.616,0,0,1,.344.1.835.835,0,0,1,.225.338,2.3,2.3,0,0,1,.146.642A6.058,6.058,0,0,1,70.19,197.721Z" transform="translate(99.556 -174.529)" fill="#002581"/>
      <path id="Path_724" data-name="Path 724" d="M89.362,199.068a.679.679,0,0,1-.1.338.665.665,0,0,1-.4.245,4.471,4.471,0,0,1-.735.159,11.055,11.055,0,0,1-1.165.053,10.918,10.918,0,0,1-1.159-.053,3.836,3.836,0,0,1-.728-.159.719.719,0,0,1-.384-.245.553.553,0,0,1-.119-.338V178.829h-.04l-7.2,20.2a.911.911,0,0,1-.245.43,1.22,1.22,0,0,1-.47.245,2.846,2.846,0,0,1-.768.126,11.052,11.052,0,0,1-1.112.033,6.933,6.933,0,0,1-1.112-.053,3.2,3.2,0,0,1-.755-.139,1.344,1.344,0,0,1-.477-.265.725.725,0,0,1-.225-.377l-6.952-20.2H65.17v20.239a.692.692,0,0,1-.106.338.667.667,0,0,1-.391.245,4.9,4.9,0,0,1-.741.159,11.054,11.054,0,0,1-1.165.053,10.644,10.644,0,0,1-1.145-.053,3.861,3.861,0,0,1-.748-.159.63.63,0,0,1-.377-.245.577.577,0,0,1-.106-.338V176.909a2.082,2.082,0,0,1,.51-1.509,1.9,1.9,0,0,1,1.39-.516h3.3a6.328,6.328,0,0,1,1.523.159,2.733,2.733,0,0,1,1.092.477,2.911,2.911,0,0,1,.781.867,8.886,8.886,0,0,1,.536,1.364L74.9,192.567h.073l5.575-14.777a7.264,7.264,0,0,1,.556-1.364,3.033,3.033,0,0,1,.675-.907,2.236,2.236,0,0,1,.933-.477,4.441,4.441,0,0,1,1.245-.159h3.4a2.778,2.778,0,0,1,.907.139,1.367,1.367,0,0,1,.609.391,1.581,1.581,0,0,1,.364.642,2.412,2.412,0,0,1,.132.854Z" transform="translate(121.24 -174.439)" fill="#00973d"/>
      <path id="Path_725" data-name="Path 725" d="M70.669,199.158a.588.588,0,0,1-.139.338.789.789,0,0,1-.4.245,4.8,4.8,0,0,1-.788.159,11.815,11.815,0,0,1-1.218.053,12.052,12.052,0,0,1-1.212-.053,4.391,4.391,0,0,1-.788-.159.82.82,0,0,1-.424-.245.653.653,0,0,1-.119-.338v-23.5a.639.639,0,0,1,.119-.351,1,1,0,0,1,.43-.232,3.746,3.746,0,0,1,.781-.159,10.357,10.357,0,0,1,1.212-.053,10.193,10.193,0,0,1,1.218.053,3.728,3.728,0,0,1,.788.159.94.94,0,0,1,.4.232.574.574,0,0,1,.139.351Z" transform="translate(150.433 -174.529)" fill="#00973d"/>
      <path id="Path_726" data-name="Path 726" d="M80.834,197.721a8.221,8.221,0,0,1-.046.98,2.489,2.489,0,0,1-.152.636.766.766,0,0,1-.238.384.56.56,0,0,1-.338.113H68.672a1.521,1.521,0,0,1-1.073-.377,1.538,1.538,0,0,1-.43-1.218V175.661a.566.566,0,0,1,.132-.351.8.8,0,0,1,.4-.232,3.545,3.545,0,0,1,.795-.159,10.162,10.162,0,0,1,1.2-.053,10.438,10.438,0,0,1,1.231.053,3.348,3.348,0,0,1,.768.159.874.874,0,0,1,.417.232.522.522,0,0,1,.126.351v20.007h7.819a.594.594,0,0,1,.338.1.851.851,0,0,1,.238.338,2.87,2.87,0,0,1,.152.642A8.253,8.253,0,0,1,80.834,197.721Z" transform="translate(159.342 -174.529)" fill="#00973d"/>
      <path id="Path_727" data-name="Path 727" d="M83.353,197.721a8.069,8.069,0,0,1-.053.98,2.26,2.26,0,0,1-.146.636.653.653,0,0,1-.238.384.532.532,0,0,1-.338.113H71.191a1.423,1.423,0,0,1-1.51-1.6V175.661a.566.566,0,0,1,.132-.351.909.909,0,0,1,.417-.232,3.571,3.571,0,0,1,.781-.159,14.123,14.123,0,0,1,2.443,0,3.657,3.657,0,0,1,.781.159.863.863,0,0,1,.4.232.607.607,0,0,1,.132.351v20.007h7.812a.565.565,0,0,1,.338.1.693.693,0,0,1,.238.338,2.565,2.565,0,0,1,.146.642A8.116,8.116,0,0,1,83.353,197.721Z" transform="translate(173.461 -174.529)" fill="#00973d"/>
      <path id="Path_728" data-name="Path 728" d="M88.209,192.678a7.811,7.811,0,0,1-.728,3.436,6.752,6.752,0,0,1-1.986,2.456,8.114,8.114,0,0,1-2.913,1.5,12.281,12.281,0,0,1-3.575.49,14.843,14.843,0,0,1-2.4-.192,17.821,17.821,0,0,1-1.946-.51,9.079,9.079,0,0,1-1.417-.642,4.383,4.383,0,0,1-.814-.563,1.634,1.634,0,0,1-.358-.728,6.757,6.757,0,0,1-.106-1.344q0-.616.04-1.013a3.192,3.192,0,0,1,.119-.642.919.919,0,0,1,.238-.371.665.665,0,0,1,.331-.086,1.515,1.515,0,0,1,.761.3,11.241,11.241,0,0,0,3.1,1.4,8.616,8.616,0,0,0,2.463.338,5.279,5.279,0,0,0,1.649-.232,3.662,3.662,0,0,0,1.245-.622,2.505,2.505,0,0,0,.775-1.013,3,3,0,0,0,.265-1.311,2.315,2.315,0,0,0-.45-1.443,4.682,4.682,0,0,0-1.2-1.086,16.381,16.381,0,0,0-1.682-.887c-.629-.278-1.278-.563-1.933-.867A19.653,19.653,0,0,1,75.736,188a8.062,8.062,0,0,1-1.682-1.417,6.257,6.257,0,0,1-1.2-1.913,7,7,0,0,1-.47-2.675,6.864,6.864,0,0,1,.675-3.151,6.576,6.576,0,0,1,1.781-2.251A7.879,7.879,0,0,1,77.5,175.26a11.452,11.452,0,0,1,3.237-.444,11.578,11.578,0,0,1,1.768.146,10.522,10.522,0,0,1,1.662.371,6.982,6.982,0,0,1,1.351.516,4.109,4.109,0,0,1,.788.457,1.258,1.258,0,0,1,.258.338,1.523,1.523,0,0,1,.113.358,3.366,3.366,0,0,1,.073.556c.013.218.02.5.02.834,0,.377-.02.7-.027.94a4.257,4.257,0,0,1-.1.642,1.02,1.02,0,0,1-.185.371.522.522,0,0,1-.344.106,1.725,1.725,0,0,1-.675-.265,12.689,12.689,0,0,0-1.125-.6c-.45-.192-.973-.384-1.556-.569a6.887,6.887,0,0,0-1.94-.245,5.2,5.2,0,0,0-1.45.192,3.36,3.36,0,0,0-1.026.549,2.324,2.324,0,0,0-.609.867,2.579,2.579,0,0,0-.212,1.053,2.286,2.286,0,0,0,.463,1.43,4.168,4.168,0,0,0,1.2,1.079,10.7,10.7,0,0,0,1.721.867c.642.285,1.3.589,1.96.887a21.683,21.683,0,0,1,1.966,1.046,7.884,7.884,0,0,1,1.7,1.4,6.322,6.322,0,0,1,1.2,1.933A6.489,6.489,0,0,1,88.209,192.678Z" transform="translate(186.321 -174.816)" fill="#00973d"/>
      <path id="Path_729" data-name="Path 729" d="M90,197.721a7.028,7.028,0,0,1-.046.98,1.868,1.868,0,0,1-.152.636.761.761,0,0,1-.225.384.574.574,0,0,1-.338.113H77.84a1.505,1.505,0,0,1-1.066-.377,1.559,1.559,0,0,1-.424-1.218V175.661a.631.631,0,0,1,.113-.351.986.986,0,0,1,.417-.232,3.486,3.486,0,0,1,.781-.159,10.5,10.5,0,0,1,1.212-.053,10.634,10.634,0,0,1,1.238.053,3.513,3.513,0,0,1,.768.159.946.946,0,0,1,.417.232.59.59,0,0,1,.119.351v20.007H89.24a.61.61,0,0,1,.338.1.836.836,0,0,1,.225.338,2.085,2.085,0,0,1,.152.642A7.039,7.039,0,0,1,90,197.721Z" transform="translate(210.944 -174.529)" fill="#00973d"/>
      <path id="Path_730" data-name="Path 730" d="M97.08,176.955a9.494,9.494,0,0,1-.053.96,2.42,2.42,0,0,1-.139.629.787.787,0,0,1-.238.358.528.528,0,0,1-.311.112h-6.23v20.054a.535.535,0,0,1-.132.338.755.755,0,0,1-.4.245,4.618,4.618,0,0,1-.794.159,11.71,11.71,0,0,1-1.2.053,11.9,11.9,0,0,1-1.218-.053,4.429,4.429,0,0,1-.781-.159.825.825,0,0,1-.417-.245.575.575,0,0,1-.132-.338V179.014h-6.21a.532.532,0,0,1-.338-.112.9.9,0,0,1-.225-.358,2.649,2.649,0,0,1-.152-.629c-.026-.265-.046-.589-.046-.96s.02-.708.046-.973a3.321,3.321,0,0,1,.152-.655,1.032,1.032,0,0,1,.225-.338.57.57,0,0,1,.338-.106H96.338a.568.568,0,0,1,.311.106.882.882,0,0,1,.238.338,2.965,2.965,0,0,1,.139.655C97.053,176.247,97.08,176.585,97.08,176.955Z" transform="translate(220.511 -174.439)" fill="#00973d"/>
      <path id="Path_731" data-name="Path 731" d="M102.021,186.946a17.244,17.244,0,0,1-.894,5.866,9.92,9.92,0,0,1-2.562,3.959,10.252,10.252,0,0,1-4.065,2.258,19.781,19.781,0,0,1-5.687.715H82.874a1.469,1.469,0,0,1-1.073-.377,1.515,1.515,0,0,1-.43-1.218V176.479a1.525,1.525,0,0,1,.43-1.218,1.5,1.5,0,0,1,1.073-.377h6.369a18.054,18.054,0,0,1,5.647.781,10.186,10.186,0,0,1,3.886,2.3,9.835,9.835,0,0,1,2.41,3.774A14.975,14.975,0,0,1,102.021,186.946Zm-5.23.179a12.819,12.819,0,0,0-.4-3.3,7.167,7.167,0,0,0-1.331-2.622,6.31,6.31,0,0,0-2.344-1.735,9.362,9.362,0,0,0-3.754-.622H86.4v16.9h2.635a10,10,0,0,0,3.5-.53,6.01,6.01,0,0,0,2.37-1.629A6.91,6.91,0,0,0,96.32,190.9,13.753,13.753,0,0,0,96.79,187.124Z" transform="translate(239.165 -174.439)" fill="#00973d"/>
      <path id="Path_732" data-name="Path 732" d="M90.653,180.687a3.483,3.483,0,0,1-.616,2.41,2.892,2.892,0,0,1-5.1-2.284,3.468,3.468,0,0,1,.629-2.43,4.522,4.522,0,0,1,4.476-.02A3.387,3.387,0,0,1,90.653,180.687Z" transform="translate(259.22 -158.151)" fill="#00973d"/>
    </g>
  </g>
</svg>
