<svg xmlns="http://www.w3.org/2000/svg" viewBox="0 0 226.8 226.8"><defs><style>.cls-1{opacity:0.1;}.cls-2{fill:#3a2a5b;}.cls-3{font-size:29.23px;fill:#231f20;font-family:PTSans-Bold, PT Sans;font-weight:700;}.cls-4{letter-spacing:-0.08em;}.cls-5{letter-spacing:-0.04em;}.cls-6{letter-spacing:0em;}.cls-7{letter-spacing:-0.03em;}.cls-8{letter-spacing:-0.04em;}.cls-9{letter-spacing:-0.06em;}.cls-10{letter-spacing:-0.03em;}.cls-11{letter-spacing:-0.13em;}.cls-12{letter-spacing:-0.03em;}.cls-13{letter-spacing:-0.07em;}</style></defs><title>Artboard 11 copy 26</title><g id="Layer_2" data-name="Layer 2"><g class="cls-1"><path class="cls-2" d="M175.86,95H164.68q-1.85,9.77-3.71,19.53h11.17C173.38,108,174.62,101.48,175.86,95Z"/><path class="cls-2" d="M91.5,160.19c0-.19,0-.39,0-.58V96h11.6v29.4l.13.09a2.2,2.2,0,0,0,.35-.33c1.43-2.12,2.81-4.28,4.3-6.36,2.25-3.14,4.59-6.22,6.89-9.32l9.75-13.13a.75.75,0,0,1,.66-.4c4.58,0,9.17,0,13.75,0l.37,0-22.07,27.3,2.65,4.14,19.53,30.63c.45.71.92,1.41,1.38,2.11H126.91a1.8,1.8,0,0,0-.16-.38L121,150.46q-4.7-7.61-9.4-15.22c-.91-1.48-1.83-2.94-2.79-4.5-.11.15-.18.26-.26.36-1.7,2.05-3.4,4.1-5.12,6.13a1.36,1.36,0,0,0-.32.92c0,3.67,0,7.35,0,11s0,7.35,0,11Z"/><path class="cls-2" d="M26.13,159.9c.3-.86.61-1.71.89-2.58q2.91-9,5.8-18L42,110.51c1.5-4.68,3-9.35,4.49-14,.12-.36.26-.5.66-.5q7,0,14,0c.36,0,.54.08.65.44q3.36,10.38,6.73,20.76,2.3,7.08,4.6,14.15,3.07,9.48,6.14,19L82.48,160a1.62,1.62,0,0,1,0,.19H69.94q-2.82-8.79-5.61-17.59a.71.71,0,0,0-.83-.6q-9.59,0-19.16,0a.65.65,0,0,0-.76.57c-1.77,5.88-3.57,11.75-5.35,17.62H26.13Zm36-26.83c-1.49-4.64-3-9.22-4.41-13.84s-2.65-9.25-4-13.87l-.13,0c-1.88,9.45-5.08,18.52-7.91,27.74Z"/><path class="cls-2" d="M172.48,160.19c-.66-.1-1.31-.19-2-.3a19.45,19.45,0,0,1-12.14-6.73c-.1-.12-.19-.25-.31-.41l7.19-6.63c.13.16.25.3.36.45a13.44,13.44,0,0,0,4.56,4,9.08,9.08,0,0,0,3.89.93,13.14,13.14,0,0,0,4.19-.42,8.24,8.24,0,0,0,4.92-4.17,25.62,25.62,0,0,0,2.56-7.5c.73-3.5,1.39-7,2.06-10.53q1.15-6,2.29-12c.81-4.21,1.6-8.43,2.41-12.64.58-3.08,1.18-6.16,1.78-9.27h11.07c-.15.78-.29,1.55-.43,2.32q-1.15,6.1-2.32,12.21c-.76,4-1.55,8-2.31,12.06q-1.44,7.56-2.85,15.13a52.92,52.92,0,0,1-2.85,10.57,21.56,21.56,0,0,1-5.67,8.33,17.52,17.52,0,0,1-7.94,3.89c-1.38.29-2.79.41-4.18.61-.17,0-.35.07-.52.1Z"/><path class="cls-2" d="M142.23,160.19q1.32-6.88,2.63-13.78,1.47-7.69,2.93-15.4,1.29-6.82,2.56-13.64c.1-.49.17-1,.3-1.47,0-.15.22-.36.33-.36,3.59,0,7.18,0,10.77,0,0,0,0,0,.11.06-.12.64-.23,1.3-.36,2q-1.2,6.38-2.41,12.74c-.77,4-1.55,8-2.31,12-.8,4.22-1.58,8.43-2.38,12.65-.3,1.6-.62,3.2-.93,4.81,0,.12,0,.26,0,.38Z"/><path class="cls-2" d="M175.86,95c-1.24,6.52-2.48,13-3.72,19.53H161q1.86-9.78,3.71-19.53Z"/></g><text class="cls-3" transform="translate(41.93 114.35)">AKIJ M<tspan class="cls-4" x="84.68" y="0">A</tspan><tspan class="cls-5" x="100.08" y="0">T</tspan><tspan class="cls-6" x="115.54" y="0">CH</tspan><tspan x="-10.79" y="35.08">F</tspan><tspan class="cls-7" x="4.06" y="35.08">A</tspan><tspan class="cls-8" x="20.84" y="35.08">C</tspan><tspan class="cls-5" x="35.89" y="35.08">T</tspan><tspan class="cls-6" x="51.36" y="35.08">O</tspan><tspan class="cls-9" x="70.94" y="35.08">R</tspan><tspan class="cls-10" x="86.78" y="35.08">Y</tspan><tspan x="103.3" y="35.08"> </tspan><tspan class="cls-11" x="110.69" y="35.08">L</tspan><tspan x="121.89" y="35.08">T</tspan><tspan class="cls-12" x="138.49" y="35.08">D</tspan><tspan class="cls-13" x="156.52" y="35.08">.</tspan></text></g></svg>