<svg xmlns="http://www.w3.org/2000/svg" viewBox="0 0 226.8 226.8"><defs><style>.cls-1{fill:#231f20;}.cls-2{fill:#e21e26;}</style></defs><title>Artboard 11 copy 36</title><g id="Layer_2" data-name="Layer 2"><path class="cls-1" d="M22.33,164.21h-6.9l-1.7,5H9.33l8.09-22.62h3.24l8.08,22.62H24.12Zm-5.78-3.52h4.81l-1.66-5L19,152.15h-.16l-.67,3.56Z"/><path class="cls-1" d="M35.87,162.55H34.75v6.64H30.57V146.73h4.18V160l1-.45,3.66-6.38H44l-3.85,6.09-1.63,1.22,1.76,1.25,4.33,7.48H39.78Z"/><path class="cls-1" d="M46.07,148.62a2.12,2.12,0,0,1,.69-1.59,2.66,2.66,0,0,1,1.91-.66,2.88,2.88,0,0,1,2,.66,2,2,0,0,1,.76,1.59,1.94,1.94,0,0,1-.76,1.56,3,3,0,0,1-2,.62,2.78,2.78,0,0,1-1.91-.62A2,2,0,0,1,46.07,148.62Zm.61,4.53h4.17v16H46.68Z"/><path class="cls-1" d="M55.34,153.15h4.17v16.71a7.34,7.34,0,0,1-1.15,4.46,4.3,4.3,0,0,1-3.69,1.54,10.09,10.09,0,0,1-2.05-.22v-3.5h.22a.65.65,0,0,0,.19,0,1.85,1.85,0,0,0,1.88-.93,6.21,6.21,0,0,0,.43-2.57Zm-.57-4.53a2.12,2.12,0,0,1,.69-1.59,2.64,2.64,0,0,1,1.91-.66,2.88,2.88,0,0,1,2,.66,2,2,0,0,1,.75,1.59,2,2,0,0,1-.75,1.56,3,3,0,0,1-2,.62,2.76,2.76,0,0,1-1.91-.62A2,2,0,0,1,54.77,148.62Z"/><path class="cls-1" d="M86.56,168.27a6.62,6.62,0,0,1-2.61,1,16.76,16.76,0,0,1-3.26.32,11.52,11.52,0,0,1-3.83-.63,8.25,8.25,0,0,1-3.2-2,9.84,9.84,0,0,1-2.19-3.63,15.61,15.61,0,0,1-.82-5.4,14.66,14.66,0,0,1,.91-5.54,10,10,0,0,1,2.38-3.59,8.83,8.83,0,0,1,3.25-2,11.6,11.6,0,0,1,3.6-.59,16.68,16.68,0,0,1,3.25.26,11.49,11.49,0,0,1,2.2.61l-.86,3.72a6.44,6.44,0,0,0-1.75-.52,17.08,17.08,0,0,0-2.46-.16,5.37,5.37,0,0,0-4.28,1.9Q75.27,154,75.27,158a12.47,12.47,0,0,0,.38,3.17,6.92,6.92,0,0,0,1.17,2.44,5.48,5.48,0,0,0,2,1.58,6.28,6.28,0,0,0,2.71.56,8.54,8.54,0,0,0,2.44-.29,7,7,0,0,0,1.73-.74Z"/><path class="cls-1" d="M88.94,148.62a2.12,2.12,0,0,1,.69-1.59,2.63,2.63,0,0,1,1.9-.66,2.91,2.91,0,0,1,2,.66,2,2,0,0,1,.75,1.59,2,2,0,0,1-.75,1.56,3,3,0,0,1-2,.62,2.75,2.75,0,0,1-1.9-.62A2,2,0,0,1,88.94,148.62Zm.61,4.53h4.17v16H89.55Z"/><path class="cls-1" d="M96.15,153.15h2.22v-3l4.17-1.19v4.21h3.91v3.52h-3.91v6.16a6,6,0,0,0,.34,2.39,1.25,1.25,0,0,0,1.26.73,4.45,4.45,0,0,0,1.11-.13,6.87,6.87,0,0,0,1-.39l.74,3.21a11,11,0,0,1-2,.71,9.74,9.74,0,0,1-2.34.29,4.22,4.22,0,0,1-3.26-1.14,5.5,5.5,0,0,1-1-3.74v-8.09H96.15Z"/><path class="cls-1" d="M114.12,162.16l.58,2.5h.19l.42-2.53,2.44-9h4.3l-4.88,14.46c-.41,1.2-.8,2.3-1.17,3.29a14.55,14.55,0,0,1-1.24,2.59,5.89,5.89,0,0,1-1.49,1.68,3.17,3.17,0,0,1-1.94.59,5.58,5.58,0,0,1-2.66-.54l.77-3.34a2.53,2.53,0,0,0,1,.19,2.1,2.1,0,0,0,1.43-.62,4.21,4.21,0,0,0,1-2.26l-6.7-16h5Z"/><path class="cls-1" d="M145.47,168.27a6.73,6.73,0,0,1-2.62,1,16.58,16.58,0,0,1-3.25.32,11.63,11.63,0,0,1-3.84-.63,8.22,8.22,0,0,1-3.19-2,10,10,0,0,1-2.2-3.63,15.85,15.85,0,0,1-.82-5.4,14.65,14.65,0,0,1,.92-5.54,10.13,10.13,0,0,1,2.37-3.59,8.86,8.86,0,0,1,3.26-2,11.58,11.58,0,0,1,3.59-.59,16.79,16.79,0,0,1,3.26.26,11.49,11.49,0,0,1,2.2.61l-.87,3.72a6.23,6.23,0,0,0-1.75-.52,16.83,16.83,0,0,0-2.45-.16,5.34,5.34,0,0,0-4.28,1.9q-1.63,1.91-1.63,5.88a12,12,0,0,0,.39,3.17,6.92,6.92,0,0,0,1.17,2.44,5.4,5.4,0,0,0,2,1.58,6.25,6.25,0,0,0,2.71.56,8.63,8.63,0,0,0,2.44-.29,7,7,0,0,0,1.73-.74Z"/><path class="cls-1" d="M159.78,167.81a8.3,8.3,0,0,1-2.62,1.3,11.51,11.51,0,0,1-3.51.53q-3.89,0-5.68-2.27a9.67,9.67,0,0,1-1.8-6.2c0-2.83.68-4.94,2-6.36a7.47,7.47,0,0,1,5.68-2.11,8.58,8.58,0,0,1,2.37.32,5.47,5.47,0,0,1,2.05,1,5.38,5.38,0,0,1,1.45,2,7.93,7.93,0,0,1,.54,3.12,12.25,12.25,0,0,1-.08,1.44c-.05.51-.13,1-.24,1.61h-9.59a4.67,4.67,0,0,0,1,3,3.94,3.94,0,0,0,3.05,1,6.74,6.74,0,0,0,3.93-1.22ZM153.83,156a2.9,2.9,0,0,0-2.41,1,4.8,4.8,0,0,0-.95,2.62h5.94a4,4,0,0,0-.53-2.67A2.33,2.33,0,0,0,153.83,156Z"/><path class="cls-1" d="M173.06,169.19v-9.12a5.43,5.43,0,0,0-.56-2.82,2.09,2.09,0,0,0-1.91-.86,3,3,0,0,0-2,.68,3.84,3.84,0,0,0-1.17,1.72v10.4h-4.18v-16h3.31l.48,2.11h.13a6.8,6.8,0,0,1,2-1.79,5.73,5.73,0,0,1,3.14-.77,6.34,6.34,0,0,1,2.12.32,3.58,3.58,0,0,1,1.57,1,4.83,4.83,0,0,1,1,2,12.72,12.72,0,0,1,.32,3.13v10Z"/><path class="cls-1" d="M179.06,153.15h2.22v-3l4.17-1.19v4.21h3.91v3.52h-3.91v6.16a6.19,6.19,0,0,0,.33,2.39,1.27,1.27,0,0,0,1.27.73,4.45,4.45,0,0,0,1.11-.13,6.87,6.87,0,0,0,1-.39l.74,3.21a11,11,0,0,1-2,.71,9.74,9.74,0,0,1-2.34.29,4.21,4.21,0,0,1-3.26-1.14,5.45,5.45,0,0,1-1-3.74v-8.09h-2.22Z"/><path class="cls-1" d="M204.6,167.81a8.35,8.35,0,0,1-2.61,1.3,11.62,11.62,0,0,1-3.52.53q-3.89,0-5.68-2.27a9.73,9.73,0,0,1-1.79-6.2c0-2.83.67-4.94,2-6.36a7.48,7.48,0,0,1,5.68-2.11,8.58,8.58,0,0,1,2.37.32,5.52,5.52,0,0,1,2.06,1,5.36,5.36,0,0,1,1.44,2,7.93,7.93,0,0,1,.54,3.12,12.25,12.25,0,0,1-.08,1.44c-.05.51-.13,1-.23,1.61h-9.6a4.67,4.67,0,0,0,1,3,4,4,0,0,0,3,1,6.4,6.4,0,0,0,2.35-.4,6.59,6.59,0,0,0,1.59-.82ZM198.65,156a2.9,2.9,0,0,0-2.41,1,4.8,4.8,0,0,0-.94,2.62h5.93a4.08,4.08,0,0,0-.52-2.67A2.36,2.36,0,0,0,198.65,156Z"/><path class="cls-1" d="M216.92,157.06a5.28,5.28,0,0,0-1.79-.35,2.92,2.92,0,0,0-1.88.59,2.87,2.87,0,0,0-1,1.52v10.37h-4.17v-16h3.24l.48,2.11h.13a4.36,4.36,0,0,1,1.47-1.83,3.81,3.81,0,0,1,2.18-.64,6,6,0,0,1,1.9.36Z"/><path class="cls-2" d="M114.18,50.94l-45,72.46,88.46-.27-13.55-22.51c-.32.26-.67.54-.94.72A61.65,61.65,0,0,1,126,109.86a32.74,32.74,0,0,1-13.46,1.55,19.54,19.54,0,0,1-10.13-4c-4.74-3.73-7.16-8.79-6.31-15.12a18.15,18.15,0,0,1,9.54-14.2A18.9,18.9,0,0,1,117.33,76,15.06,15.06,0,0,1,129,83.87a8.88,8.88,0,0,1,1.26,6,11.89,11.89,0,0,1-4.79,7.76,17.48,17.48,0,0,1-8,3.47,7.26,7.26,0,0,1-6.43-1.9,5.89,5.89,0,0,1-1-6.84,7.43,7.43,0,0,1,3.67-3.06c2.32-1.07,4.74-.93,7.17-.76.67,0,1.34.13,2.09.21-.37-2.09-.71-4.08-1.07-6.09A26.57,26.57,0,0,0,114,83.87a13.18,13.18,0,0,0-7.34,5.06A10.2,10.2,0,0,0,109,103a12.1,12.1,0,0,0,7.24,2,20.6,20.6,0,0,0,9.16-2.05,30.14,30.14,0,0,0,12.54-11.37,1.26,1.26,0,0,0,.08-.93"/></g></svg>